<svg xmlns="http://www.w3.org/2000/svg" xmlns:xlink="http://www.w3.org/1999/xlink" xml:lang="en" height="172.49999999999997pt" width="604.9505726811989pt" viewBox="-4.6 -110.99999999999999 604.9505726811989 172.49999999999997"><path d="M 0.0,-0.0 L 86.4,-0 L 86.4,-72 L 0,-72 L 0,-0" style="stroke:black;fill:none;stroke-width:2.0;stroke-dasharray:-;stroke-linecap:round;stroke-linejoin:round;" /><path d="M 86.39999999999999,-36.0 L 104.4,-36" style="stroke:black;fill:none;stroke-width:2.0;stroke-dasharray:-;stroke-linecap:round;stroke-linejoin:round;" /><path d="M 104.39999999999999,-36.0 L 115.2,-36 L 126,-36" style="stroke:black;fill:none;stroke-width:2.0;stroke-dasharray:-;stroke-linecap:round;stroke-linejoin:round;" /><path d="M 148.5,-58.5 L 148.5,-103.5 L 226.442,-58.5 L 148.5,-13.5 L 148.5,-58.5 M 226.442,-58.5" style="stroke:black;fill:none;stroke-width:2.0;stroke-dasharray:-;stroke-linecap:round;stroke-linejoin:round;" /><path d="M 154.64278579257493,-81.0 L 161.843,-81" style="stroke:black;fill:none;stroke-width:2.0;stroke-dasharray:-;stroke-linecap:round;stroke-linejoin:round;" /><path d="M 154.64278579257493,-36.0 L 161.843,-36" style="stroke:black;fill:none;stroke-width:2.0;stroke-dasharray:-;stroke-linecap:round;stroke-linejoin:round;" /><path d="M 158.24278579257495,-32.4 L 158.243,-39.6" style="stroke:black;fill:none;stroke-width:2.0;stroke-dasharray:-;stroke-linecap:round;stroke-linejoin:round;" /><path d="M 126.0,-81.0 L 148.5,-81" style="stroke:black;fill:none;stroke-width:2.0;stroke-dasharray:-;stroke-linecap:round;stroke-linejoin:round;" /><path d="M 126.0,-36.0 L 148.5,-36" style="stroke:black;fill:none;stroke-width:2.0;stroke-dasharray:-;stroke-linecap:round;stroke-linejoin:round;" /><path d="M 226.44228634059948,-58.5 L 248.942,-58.5" style="stroke:black;fill:none;stroke-width:2.0;stroke-dasharray:-;stroke-linecap:round;stroke-linejoin:round;" /><path d="M 248.94228634059948,-58.5 L 248.942,-74.7 L 248.942,-90.9" style="stroke:black;fill:none;stroke-width:2.0;stroke-dasharray:-;stroke-linecap:round;stroke-linejoin:round;" /><path d="M 248.94228634059948,-90.89999999999999 L 187.471,-90.9 L 126,-90.9" style="stroke:black;fill:none;stroke-width:2.0;stroke-dasharray:-;stroke-linecap:round;stroke-linejoin:round;" /><path d="M 126.0,-90.9 L 126,-85.95 L 126,-81" style="stroke:black;fill:none;stroke-width:2.0;stroke-dasharray:-;stroke-linecap:round;stroke-linejoin:round;" /><path d="M 126.0,-81.0" style="stroke:black;fill:none;stroke-width:2.0;stroke-dasharray:-;stroke-linecap:round;stroke-linejoin:round;" /><path d="M 248.94228634059948,-58.5 L 263.342,-58.5 L 277.742,-58.5" style="stroke:black;fill:none;stroke-width:2.0;stroke-dasharray:-;stroke-linecap:round;stroke-linejoin:round;" /><path d="M 277.74228634059943,-58.5 L 277.742,-18.9 L 277.742,20.7" style="stroke:black;fill:none;stroke-width:2.0;stroke-dasharray:-;stroke-linecap:round;stroke-linejoin:round;" /><path d="M 277.74228634059943,20.700000000000006 L 317.342,20.7 L 356.942,20.7" style="stroke:black;fill:none;stroke-width:2.0;stroke-dasharray:-;stroke-linecap:round;stroke-linejoin:round;" /><path d="M 277.74228634059943,-58.5 L 302.942,-58.5 L 305.942,-67.5 L 311.942,-49.5 L 317.942,-67.5 L 323.942,-49.5 L 329.942,-67.5 L 335.942,-49.5 L 338.942,-58.5 L 364.142,-58.5" style="stroke:black;fill:none;stroke-width:2.0;stroke-dasharray:-;stroke-linecap:round;stroke-linejoin:round;" /><path d="M 364.14228634059947,-58.5 L 364.142,-33.3 L 373.142,-30.3 L 355.142,-24.3 L 373.142,-18.3 L 355.142,-12.3 L 373.142,-6.3 L 355.142,-0.3 L 364.142,2.7 L 364.142,27.9" style="stroke:black;fill:none;stroke-width:2.0;stroke-dasharray:-;stroke-linecap:round;stroke-linejoin:round;" /><path d="M 364.14228634059947,27.9 L 364.142,42.3" style="stroke:black;fill:none;stroke-width:2.0;stroke-dasharray:-;stroke-linecap:round;stroke-linejoin:round;" /><path d="M 364.14228634059947,42.3 L 357.392,42.3" style="stroke:black;fill:none;stroke-width:2.0;stroke-dasharray:-;stroke-linecap:round;stroke-linejoin:round;" /><path d="M 364.14228634059947,42.3 L 370.892,42.3" style="stroke:black;fill:none;stroke-width:2.0;stroke-dasharray:-;stroke-linecap:round;stroke-linejoin:round;" /><path d="M 386.64228634059947,-36.0 L 386.642,-81 L 464.585,-36 L 386.642,9 L 386.642,-36 M 464.585,-36" style="stroke:black;fill:none;stroke-width:2.0;stroke-dasharray:-;stroke-linecap:round;stroke-linejoin:round;" /><path d="M 392.7850721331744,-58.5 L 399.985,-58.5" style="stroke:black;fill:none;stroke-width:2.0;stroke-dasharray:-;stroke-linecap:round;stroke-linejoin:round;" /><path d="M 392.7850721331744,-13.5 L 399.985,-13.5" style="stroke:black;fill:none;stroke-width:2.0;stroke-dasharray:-;stroke-linecap:round;stroke-linejoin:round;" /><path d="M 396.3850721331744,-9.899999999999997 L 396.385,-17.1" style="stroke:black;fill:none;stroke-width:2.0;stroke-dasharray:-;stroke-linecap:round;stroke-linejoin:round;" /><path d="M 364.14228634059947,-58.5 L 386.642,-58.5" style="stroke:black;fill:none;stroke-width:2.0;stroke-dasharray:-;stroke-linecap:round;stroke-linejoin:round;" /><path d="M 364.14228634059947,-13.5 L 386.642,-13.5" style="stroke:black;fill:none;stroke-width:2.0;stroke-dasharray:-;stroke-linecap:round;stroke-linejoin:round;" /><path d="M 464.584572681199,-36.0 L 487.085,-36" style="stroke:black;fill:none;stroke-width:2.0;stroke-dasharray:-;stroke-linecap:round;stroke-linejoin:round;" /><path d="M 364.14228634059947,-13.5 L 364.142,0.9 L 355.142,0.9 L 373.142,0.9 M 357.842,5.22 L 370.442,5.22 M 362.342,9.54 L 365.942,9.54" style="stroke:black;fill:none;stroke-width:2.0;stroke-dasharray:-;stroke-linecap:round;stroke-linejoin:round;" /><path d="M 487.084572681199,-36.0 L 487.085,-59.4 L 487.085,-82.8" style="stroke:black;fill:none;stroke-width:2.0;stroke-dasharray:-;stroke-linecap:round;stroke-linejoin:round;" /><path d="M 487.084572681199,-82.8 L 443.613,-82.8 L 440.613,-73.8 L 434.613,-91.8 L 428.613,-73.8 L 422.613,-91.8 L 416.613,-73.8 L 410.613,-91.8 L 407.613,-82.8 L 364.142,-82.8" style="stroke:black;fill:none;stroke-width:2.0;stroke-dasharray:-;stroke-linecap:round;stroke-linejoin:round;" /><path d="M 364.14228634059947,-82.80000000000001 L 364.142,-70.65 L 364.142,-58.5" style="stroke:black;fill:none;stroke-width:2.0;stroke-dasharray:-;stroke-linecap:round;stroke-linejoin:round;" /><path d="M 487.084572681199,-36.0 L 505.085,-36 L 523.085,-36" style="stroke:black;fill:none;stroke-width:2.0;stroke-dasharray:-;stroke-linecap:round;stroke-linejoin:round;" /><text x="81.0" y="-50.0" dominant-baseline="central" fill="black" font-size="14" font-family="sans" text-anchor="end"><tspan x="81.0" dy="14">VOUT</tspan></text><text x="46.800000000000004" y="-62.1" dominant-baseline="central" fill="black" font-size="9" font-family="sans" text-anchor="middle"><tspan x="46.800000000000004" dy="9">16-bit</tspan><tspan x="46.800000000000004" dy="9">R-2R DAC</tspan><tspan x="46.800000000000004" dy="9">2×74HC595</tspan><tspan x="46.800000000000004" dy="9">0-5V</tspan></text><circle cx="126" cy="-81" r="2.7" style="stroke:black;fill:black;stroke-width:2.0;stroke-dasharray:-;" /><text x="191.0711431702997" y="-73.1" dominant-baseline="hanging" fill="black" font-size="11" font-family="sans" text-anchor="middle"><tspan x="191.0711431702997" dy="11">U-BUF</tspan></text><text x="360.54228634059945" y="8.100000000000009" dominant-baseline="central" fill="black" font-size="9" font-family="sans" text-anchor="start"><tspan x="360.54228634059945" dy="9">-&gt; SAR comparator</tspan></text><text x="320.9422863405994" y="-82.10000000000001" dominant-baseline="ideographic" fill="black" font-size="11" font-family="sans" text-anchor="middle"><tspan x="320.9422863405994" dy="11">R7a 10k</tspan></text><text x="351.5422863405995" y="-26.3" dominant-baseline="central" fill="black" font-size="11" font-family="sans" text-anchor="end"><tspan x="351.5422863405995" dy="11">R_cen 32k</tspan></text><text x="364.14228634059947" y="34.9" dominant-baseline="hanging" fill="black" font-size="11" font-family="sans" text-anchor="middle"><tspan x="364.14228634059947" dy="11">-8V</tspan></text><text x="429.2134295108992" y="-50.6" dominant-baseline="hanging" fill="black" font-size="11" font-family="sans" text-anchor="middle"><tspan x="429.2134295108992" dy="11">U7</tspan></text><text x="425.6134295108992" y="-106.39999999999999" dominant-baseline="ideographic" fill="black" font-size="11" font-family="sans" text-anchor="middle"><tspan x="425.6134295108992" dy="11">R7 10k</tspan></text><circle cx="248.942" cy="-58.5" r="2.7" style="stroke:black;fill:black;stroke-width:2.0;stroke-dasharray:-;" /><circle cx="277.742" cy="-58.5" r="2.7" style="stroke:black;fill:black;stroke-width:2.0;stroke-dasharray:-;" /><text x="277.74228634059943" y="-75.8" dominant-baseline="ideographic" fill="black" font-size="11" font-family="sans" text-anchor="middle"><tspan x="277.74228634059943" dy="11">DACV</tspan></text><circle cx="364.142" cy="-58.5" r="2.7" style="stroke:black;fill:black;stroke-width:2.0;stroke-dasharray:-;" /><circle cx="523.085" cy="-36" r="2.7" style="stroke:black;fill:white;stroke-width:2.0;stroke-dasharray:-;" /><text x="529.384572681199" y="-45.0" dominant-baseline="central" fill="black" font-size="9" font-family="sans" text-anchor="start"><tspan x="529.384572681199" dy="9">V1 ±2.5V -&gt; filter</tspan></text></svg>